<svg id="Layer_1" data-name="Layer 1" xmlns="http://www.w3.org/2000/svg" viewBox="0 0 245.81 73"><defs><style>.cls-1{fill:#101211;}.cls-2{fill:#ee6a82;}</style></defs><path id="backgriund" class="cls-1" d="M243.6,14.13V67.55a3.08,3.08,0,0,1-3.08,3.08H13.59a3.09,3.09,0,0,1-3.09-3.08V14.13A3.1,3.1,0,0,1,13.59,11H240.52A3.09,3.09,0,0,1,243.6,14.13Z"/><path id="bg_outline" d="M240.52,8.84H13.59A5.3,5.3,0,0,0,8.3,14.13V67.55a5.3,5.3,0,0,0,5.29,5.29H240.52a5.3,5.3,0,0,0,5.29-5.29V14.13A5.3,5.3,0,0,0,240.52,8.84Zm3.08,58.71a3.08,3.08,0,0,1-3.08,3.08H13.59a3.09,3.09,0,0,1-3.09-3.08V14.13A3.1,3.1,0,0,1,13.59,11H240.52a3.09,3.09,0,0,1,3.08,3.09Z"/><path id="foreground" class="cls-2" d="M235.33,5.45V58.87A3.09,3.09,0,0,1,232.24,62H5.32a3.09,3.09,0,0,1-3.09-3.09V5.45A3.08,3.08,0,0,1,5.32,2.37H232.24A3.08,3.08,0,0,1,235.33,5.45Z"/><path id="fg_outline" d="M232.24.16H5.32A5.31,5.31,0,0,0,0,5.45V58.87a5.31,5.31,0,0,0,5.3,5.29H232.24a5.3,5.3,0,0,0,5.29-5.29V5.45A5.3,5.3,0,0,0,232.24.16Zm3.09,58.71A3.09,3.09,0,0,1,232.24,62H5.32a3.09,3.09,0,0,1-3.09-3.09V5.45A3.08,3.08,0,0,1,5.32,2.37H232.24a3.08,3.08,0,0,1,3.09,3.08Z"/><g id="saweria.co"><path d="M26.56,39.74a5.09,5.09,0,0,1-1.25,3.43A8,8,0,0,1,22,45.4a12.3,12.3,0,0,1-4.42.77A14.4,14.4,0,0,1,13,45.38a8.68,8.68,0,0,1-4-2.67,1.14,1.14,0,0,1-.27-.9A1.19,1.19,0,0,1,9.32,41a1.23,1.23,0,0,1,1.67.26,6.52,6.52,0,0,0,2.94,2,12.38,12.38,0,0,0,3.78.56c2.34,0,4-.41,5-1.25a3.74,3.74,0,0,0,1.46-2.92,3.17,3.17,0,0,0-1.56-2.7,11.81,11.81,0,0,0-4.83-1.52,12.27,12.27,0,0,1-6.18-2.26,4.91,4.91,0,0,1-2-3.88,5.9,5.9,0,0,1,1-3.53,6.42,6.42,0,0,1,2.86-2.17,11,11,0,0,1,4.16-.73,10.32,10.32,0,0,1,4.8,1,8.7,8.7,0,0,1,3.17,2.74,1,1,0,0,1,.23.9,1.17,1.17,0,0,1-.64.77,1.35,1.35,0,0,1-.88.12,1.29,1.29,0,0,1-.8-.5,6.74,6.74,0,0,0-2.52-2,8.11,8.11,0,0,0-3.45-.69,6.65,6.65,0,0,0-4.09,1.12A3.37,3.37,0,0,0,12,29a3.06,3.06,0,0,0,.61,1.9,4.48,4.48,0,0,0,2,1.38,15.72,15.72,0,0,0,3.68.89,14.48,14.48,0,0,1,4.94,1.43,6.38,6.38,0,0,1,2.59,2.31A5.44,5.44,0,0,1,26.56,39.74Z"/><path d="M52.77,28.53a11.13,11.13,0,0,0-4.16-4.18,11.73,11.73,0,0,0-6-1.52,11.88,11.88,0,0,0-6,1.52,11.18,11.18,0,0,0-4.18,4.18,11.88,11.88,0,0,0-1.52,6,11.76,11.76,0,0,0,1.52,5.95,11.11,11.11,0,0,0,4.18,4.18,11.78,11.78,0,0,0,6,1.52,11.1,11.1,0,0,0,5.43-1.31,10,10,0,0,0,3.72-3.48v3.29a1.25,1.25,0,0,0,.35.9,1.3,1.3,0,0,0,.94.35,1.16,1.16,0,0,0,.88-.35,1.28,1.28,0,0,0,.33-.9V34.52A11.88,11.88,0,0,0,52.77,28.53ZM50.6,39.26a9,9,0,0,1-3.26,3.35,9.2,9.2,0,0,1-12.68-3.35,9.39,9.39,0,0,1-1.21-4.74,9.51,9.51,0,0,1,1.21-4.78,9,9,0,0,1,8-4.57,8.9,8.9,0,0,1,8,4.57,9.6,9.6,0,0,1,1.19,4.78A9.48,9.48,0,0,1,50.6,39.26Z"/><path d="M85.87,24.88,79.14,45.13a1.09,1.09,0,0,1-.44.59,1.4,1.4,0,0,1-.77.2,1.45,1.45,0,0,1-.75-.2.94.94,0,0,1-.42-.59L71.07,27.44l-5.5,17.69a1.13,1.13,0,0,1-.48.6,1.28,1.28,0,0,1-.69.19,1.35,1.35,0,0,1-.73-.2,1.14,1.14,0,0,1-.44-.59L56.46,24.88a2.06,2.06,0,0,1,.09-1.36.92.92,0,0,1,.88-.44,1.34,1.34,0,0,1,.67.19,1.13,1.13,0,0,1,.49.56l5.9,17.78,5.42-17.53a1.39,1.39,0,0,1,.46-.73,1.23,1.23,0,0,1,.8-.27,1.15,1.15,0,0,1,.77.27,1.83,1.83,0,0,1,.48.73L77.9,41.3l5.79-17.47a1.19,1.19,0,0,1,1.17-.75,1,1,0,0,1,1,.58A1.41,1.41,0,0,1,85.87,24.88Z"/><path id="e" d="M108.42,28.28a10,10,0,0,0-3.72-4,11.06,11.06,0,0,0-11,.06,10.49,10.49,0,0,0-3.8,4.12,12.71,12.71,0,0,0-1.38,6,12.14,12.14,0,0,0,1.46,6,10.61,10.61,0,0,0,4,4.11,11.47,11.47,0,0,0,5.86,1.48,11.86,11.86,0,0,0,4.12-.79,10.78,10.78,0,0,0,3.49-2,1,1,0,0,0,.39-.84,1.14,1.14,0,0,0-.47-.84,1.18,1.18,0,0,0-.82-.27,1.21,1.21,0,0,0-.82.36,7.07,7.07,0,0,1-2.61,1.48,10.23,10.23,0,0,1-3.28.56,8.86,8.86,0,0,1-4.59-1.18,8.4,8.4,0,0,1-3.13-3.29,9.82,9.82,0,0,1-1.11-4h17.52a1.23,1.23,0,0,0,.88-.31,1.14,1.14,0,0,0,.33-.86A12.25,12.25,0,0,0,108.42,28.28ZM91.08,33.1a9.86,9.86,0,0,1,1-3.42A8.23,8.23,0,0,1,95,26.4a7.72,7.72,0,0,1,4.24-1.19,8,8,0,0,1,4.37,1.19,7.88,7.88,0,0,1,2.86,3.28,9.69,9.69,0,0,1,.88,3.42Z"/><path id="r" d="M128,24.54a.85.85,0,0,1-.58.75,2.55,2.55,0,0,1-1.11,0,10.39,10.39,0,0,0-1.44-.1,7.69,7.69,0,0,0-3.72.88,6.55,6.55,0,0,0-2.55,2.4,6.65,6.65,0,0,0-.91,3.48v12.7a1.29,1.29,0,0,1-.34.9,1.21,1.21,0,0,1-.91.35,1.24,1.24,0,0,1-.9-.35,1.22,1.22,0,0,1-.36-.9V24.33a1.17,1.17,0,0,1,.36-.91,1.23,1.23,0,0,1,.9-.34,1.21,1.21,0,0,1,.91.34,1.23,1.23,0,0,1,.34.91V26.9a8.89,8.89,0,0,1,2.92-2.9,8,8,0,0,1,4.26-1.17,6.42,6.42,0,0,1,2.46.37A1.06,1.06,0,0,1,128,24.54Z"/><path id="i" d="M136.87,14.87a2,2,0,0,0-1.31-.47,2.14,2.14,0,0,0-1.36.47,1.76,1.76,0,0,0-.6,1.44,1.91,1.91,0,0,0,.56,1.4,1.85,1.85,0,0,0,1.36.57,1.93,1.93,0,0,0,2-2A1.74,1.74,0,0,0,136.87,14.87Z"/><path id="i-2" data-name="i" d="M136.81,24.33V44.67a1.28,1.28,0,0,1-.33.9,1.22,1.22,0,0,1-.92.35,1.2,1.2,0,0,1-1.25-1.25V24.33a1.2,1.2,0,0,1,.35-.91,1.25,1.25,0,0,1,.9-.34,1.16,1.16,0,0,1,1.25,1.25Z"/><path id="a" d="M165.73,28.53a11.17,11.17,0,0,0-4.15-4.18,11.75,11.75,0,0,0-6-1.52,11.89,11.89,0,0,0-6,1.52,11.08,11.08,0,0,0-4.17,4.18,11.78,11.78,0,0,0-1.52,6,11.66,11.66,0,0,0,1.52,5.95,11,11,0,0,0,4.17,4.18,11.79,11.79,0,0,0,6,1.52A11.13,11.13,0,0,0,161,44.86a10.15,10.15,0,0,0,3.71-3.47v3.28a1.22,1.22,0,0,0,.36.9,1.28,1.28,0,0,0,.94.35,1.15,1.15,0,0,0,.87-.35,1.29,1.29,0,0,0,.34-.9V34.52A11.79,11.79,0,0,0,165.73,28.53Zm-2.17,10.73a9,9,0,0,1-3.25,3.35,9.2,9.2,0,0,1-12.68-3.35,9.29,9.29,0,0,1-1.21-4.74,9.41,9.41,0,0,1,1.21-4.78,9.36,9.36,0,0,1,12.68-3.34,9,9,0,0,1,3.25,3.34,9.6,9.6,0,0,1,1.19,4.78A9.48,9.48,0,0,1,163.56,39.26Z"/><path id="_." data-name="." d="M174,46.59a2.07,2.07,0,0,1-2.13-2.13,2,2,0,0,1,.63-1.5,2.13,2.13,0,0,1,1.5-.59,2,2,0,0,1,1.48.61,2,2,0,0,1,.61,1.48,2,2,0,0,1-.61,1.5A2,2,0,0,1,174,46.59Z"/><path id="c" d="M200.38,27.88a1.11,1.11,0,0,1-.55.75,1,1,0,0,1-.83.23,1.22,1.22,0,0,1-.8-.48,8.52,8.52,0,0,0-6.81-3.17,7.72,7.72,0,0,0-4.32,1.21,8.11,8.11,0,0,0-2.88,3.3,10.79,10.79,0,0,0-1,4.8,9.77,9.77,0,0,0,1.13,4.74A8.39,8.39,0,0,0,192,43.83a10.46,10.46,0,0,0,3.24-.49,7.19,7.19,0,0,0,2.65-1.55,1.47,1.47,0,0,1,.84-.38,1,1,0,0,1,.79.29,1.23,1.23,0,0,1,.44.86,1,1,0,0,1-.36.82,10.82,10.82,0,0,1-7.6,2.79,11.05,11.05,0,0,1-5.82-1.54,11.31,11.31,0,0,1-4.06-4.18,11.84,11.84,0,0,1-1.48-5.93,12.66,12.66,0,0,1,1.38-6,10.65,10.65,0,0,1,3.8-4.15,10.2,10.2,0,0,1,5.55-1.53,11.4,11.4,0,0,1,4.89,1A10.18,10.18,0,0,1,200.12,27,1.08,1.08,0,0,1,200.38,27.88Z"/><path id="o" d="M227.25,28.53a11.2,11.2,0,0,0-4.16-4.18,12.52,12.52,0,0,0-12,0A11.18,11.18,0,0,0,207,28.53a11.78,11.78,0,0,0-1.52,6A11.66,11.66,0,0,0,207,40.47a11.11,11.11,0,0,0,4.18,4.18,12.52,12.52,0,0,0,12,0,11.13,11.13,0,0,0,4.16-4.18,11.76,11.76,0,0,0,1.52-5.95A11.88,11.88,0,0,0,227.25,28.53Zm-2.18,10.73a8.93,8.93,0,0,1-3.25,3.35,9.2,9.2,0,0,1-12.68-3.35,9.39,9.39,0,0,1-1.21-4.74,9.51,9.51,0,0,1,1.21-4.78,9.36,9.36,0,0,1,12.68-3.34,8.91,8.91,0,0,1,3.25,3.34,10,10,0,0,1,0,9.52Z"/></g></svg>