<svg id="Layer_1" data-name="Layer 1" xmlns="http://www.w3.org/2000/svg" viewBox="0 0 128 128"><defs><style>.cls-1{fill:#fbf1c7;}.cls-2{fill:#282828;}</style></defs><rect id="outline" class="cls-1" x="12.5" y="12.5" width="103.01" height="103.01" rx="7.92"/><rect id="background" class="cls-2" x="16" y="16" width="96" height="96" rx="7.38"/><polygon id="brackets" class="cls-1" points="35.81 26.02 35.81 67 26 67 26 63.14 31.09 63.14 31.09 29.88 26 29.88 26 26.02 35.81 26.02"/><path id="braces" class="cls-1" d="M47,46.49a4.81,4.81,0,0,1,2.26,1.84,9.65,9.65,0,0,1,1,5.05v5.27c0,2.36.43,3.29.79,3.65s1.24.78,3.53.78h1.89V67H54.74c-3.6,0-6-.55-7.29-1.68S45.52,62,45.52,58.73V53.65c0-2-.34-3.4-1-4.14s-1.93-1.1-3.77-1.1H37.88V44.52h2.86c1.85,0,3.12-.36,3.78-1.08s1-2.13,1-4.1v-5.1c0-3.31.64-5.46,1.93-6.59S51.08,26,54.74,26h1.77v3.89H54.62c-2.29,0-3.18.43-3.53.79S50.3,32,50.3,34.33V39.6a9.76,9.76,0,0,1-1,5.07A4.94,4.94,0,0,1,47,46.49Z"/><rect id="underscore" class="cls-1" x="61.13" y="63.06" width="18.65" height="3.9"/></svg>